<svg xmlns="http://www.w3.org/2000/svg" viewBox="0 0 400 500" fill="none">
  <rect width="400" height="500" rx="20" fill="#1a1a2e"/>
  <rect x="100" y="40" width="200" height="320" rx="12" fill="#5C6B3C" opacity="0.1"/>
  <path d="M160 80 L240 80 L245 90 L250 200 L265 340 L230 345 L210 220 L200 200 L190 220 L170 345 L135 340 L150 200 L155 90 Z" fill="#5C6B3C" stroke="#6D7C4D" stroke-width="2"/>
  <rect x="160" y="80" width="80" height="15" rx="2" fill="#4D5C2D" stroke="#6D7C4D" stroke-width="1"/>
  <rect x="155" y="160" width="22" height="30" rx="3" fill="#4D5C2D" stroke="#6D7C4D" stroke-width="1"/>
  <rect x="223" y="160" width="22" height="30" rx="3" fill="#4D5C2D" stroke="#6D7C4D" stroke-width="1"/>
  <rect x="148" y="240" width="18" height="25" rx="3" fill="#4D5C2D" stroke="#6D7C4D" stroke-width="1"/>
  <rect x="234" y="240" width="18" height="25" rx="3" fill="#4D5C2D" stroke="#6D7C4D" stroke-width="1"/>
  <text x="200" y="420" text-anchor="middle" fill="#888" font-family="system-ui" font-size="14">CARGO PANTS</text>
</svg>
